<?xml version="1.0" encoding="UTF-8"?>
<svg xmlns="http://www.w3.org/2000/svg" width="100" height="100" viewBox="0 0 100 100">
  <path d="M90.975 43.319c-8.475 10.32-16.95 18.54-25.425 18.54-8.265 0-10.53-4.875-21.84-4.875-11.31 0-13.785 5.085-21.84 5.085-7.845 0-17.37-8.22-25.635-18.54-9.12-11.31-9.33-24.675-1.89-31.56 5.085-4.665 13.305-3.99 21.84 1.89 3.36 2.31 7.56 6.09 11.94 11.31C20.31 9.714 15.225 1.494 19.425.189c5.295-1.89 13.095 7.35 20.16 19.53 3.15 5.505 5.925 11.73 7.455 17.37 0 .21.21.21.21 0 1.53-5.64 4.305-11.865 7.455-17.37 7.065-12.18 14.865-21.42 20.16-19.53 4.2 1.305-.885 9.525-7.77 24.57 4.38-5.22 8.58-9 11.94-11.31 8.535-5.88 16.755-6.555 21.84-1.89 7.44 6.885 7.23 20.25-1.89 31.56z" style="fill:#FFFFFF;"/>
</svg>
